<svg xmlns="http://www.w3.org/2000/svg" viewBox="0 0 203 47.18">
  <defs>
    <style>
      .cls-1 {
        fill: #e43612;
      }

      .cls-2 {
        fill: #6c6463;
      }
    </style>
  </defs>
  <title>Asset 1</title>
  <g id="Layer_2" data-name="Layer 2">
    <g id="on_click" data-name="on click">
      <g>
        <path class="cls-1" d="M36.28,23.59h0l10.92-6.3-2-3.48-4.71,2.72-2.33-4,4.71-2.72-2-3.47L29.94,12.6h0V0h-4V5.44H21.27V0h-4V12.6h0L6.34,6.3l-2,3.47,4.71,2.72-2.34,4L2,13.81,0,17.29l10.92,6.3h0L0,29.89l2,3.47,4.71-2.72,2.34,4L4.34,37.4l2,3.47,10.92-6.3h0V47.18h4V41.74h4.66v5.44h4V34.57h0l10.92,6.3,2-3.47-4.71-2.72,2.33-4,4.71,2.72,2-3.47-10.92-6.3Zm-1.6,9.09-8.75-5.05v10.1H21.27V27.63l-8.75,5.05-2.33-4,8.74-5.05h0l-8.74-5.05,2.33-4,8.75,5.05V9.45h4.66v10.1l8.75-5.05,2.33,4-8.75,5.05h0L37,28.64Z"/>
        <g>
          <path class="cls-2" d="M57.24,15.07h4.23v6.51h6.29V15.07H72v17H67.76V25H61.47v7.09H57.24Z"/>
          <path class="cls-2" d="M74.88,15.9a2.28,2.28,0,1,1,2.27,2.15A2.11,2.11,0,0,1,74.88,15.9Zm.21,3.46h4.12V32.07H75.09Z"/>
          <path class="cls-2" d="M82.05,19.36h3.88l.24,1.95a4.28,4.28,0,0,1,3.75-2.22,3.59,3.59,0,0,1,3.67,2.35,4.87,4.87,0,0,1,4.15-2.35c2.62,0,4.12,1.66,4.12,4.79v8.19H97.74V24.79c0-1.34-.35-2.27-1.66-2.27S94.15,23.88,94,24.71v7.36H89.89V24.79c0-1.34-.34-2.27-1.66-2.27s-1.92,1.36-2.06,2.19v7.36H82.05Z"/>
          <path class="cls-2" d="M116.34,32.07H112a4.42,4.42,0,0,1-.27-1.36A4.81,4.81,0,0,1,108,32.34c-2,0-4.28-1-4.28-3.94s2.73-3.64,3.93-3.9a20.71,20.71,0,0,1,3.94-.38v-.43a1.54,1.54,0,0,0-.48-1.2,2.82,2.82,0,0,0-1.88-.51,8.13,8.13,0,0,0-3.88,1.15l-1-2.78a12.55,12.55,0,0,1,5.35-1.26,7.06,7.06,0,0,1,4.47,1.23,4.56,4.56,0,0,1,1.58,3.91v4.82A5.65,5.65,0,0,0,116.34,32.07Zm-4.74-5.7a18.38,18.38,0,0,0-1.93.16c-.69.13-1.79.46-1.79,1.55a1.46,1.46,0,0,0,1.6,1.53,2.36,2.36,0,0,0,2.12-1.31Z"/>
          <path class="cls-2" d="M120,31.38a4,4,0,0,1-1-3.19V22.33h-1.71v-3h1.69l.24-3.19H123v3.19h3.1v3H123v5a2.36,2.36,0,0,0,.27,1.45,1.44,1.44,0,0,0,1.17.42,5.14,5.14,0,0,0,1.37-.18l.37,2.89a11.19,11.19,0,0,1-3.16.48A4.11,4.11,0,0,1,120,31.38Z"/>
          <path class="cls-2" d="M126.69,30.36l1.66-2.52a7,7,0,0,0,4,1.55c.91,0,1.71-.1,1.71-.85s-1.18-1-2-1.23a14.18,14.18,0,0,1-2.08-.67,3.65,3.65,0,0,1-2.57-3.51c0-2.46,2.08-4.07,5.4-4.07a8,8,0,0,1,5.09,1.64l-1.45,2.43a5.86,5.86,0,0,0-3.48-1.28c-.91,0-1.71.16-1.71.91s1.23,1,2.09,1.17a15.67,15.67,0,0,1,2.09.67,3.74,3.74,0,0,1,1.12,6.51,6.2,6.2,0,0,1-4.17,1.23A9,9,0,0,1,126.69,30.36Z"/>
          <path class="cls-2" d="M139.62,15.9a2.12,2.12,0,0,1,2.28-2.16,2.1,2.1,0,0,1,2.27,2.14,2.28,2.28,0,0,1-4.55,0Zm.22,3.46H144V32.07h-4.12Z"/>
          <path class="cls-2" d="M146.8,19.36h3.88l.24,1.95a4.76,4.76,0,0,1,3.93-2.22c3.16,0,4.34,1.95,4.34,4.95v8h-4.12V24.9c0-1.45-.4-2.38-1.85-2.38a2.45,2.45,0,0,0-2.3,2.22v7.33H146.8Z"/>
          <path class="cls-2" d="M174.31,19.36v9.77c0,2.16-.27,4.15-1.61,5.54a6.9,6.9,0,0,1-5.46,2,12.73,12.73,0,0,1-5.75-1.44l1.26-2.87A9.75,9.75,0,0,0,167,33.57a3.53,3.53,0,0,0,2.54-.8,3,3,0,0,0,.73-2.17v-1a4.34,4.34,0,0,1-3.72,1.92c-3.4,0-5.52-2.51-5.52-6.23s2.22-6.24,5.57-6.24A3.92,3.92,0,0,1,170.19,21l.27-1.68Zm-4,5.91c0-1.66-.83-3.05-2.51-3.05s-2.55,1.39-2.55,3.05.83,3.05,2.52,3.05S170.32,26.93,170.32,25.27Z"/>
          <path class="cls-2" d="M177.09,14.57h4.13v9.36l3.88-4.57h4.71l-4.69,4.92L190,32.07h-4.69l-2.92-4.79-1.17,1.23v3.56h-4.13Z"/>
          <path class="cls-2" d="M203,32.07h-4.33a4.42,4.42,0,0,1-.27-1.36,4.85,4.85,0,0,1-3.72,1.63c-2,0-4.28-1-4.28-3.94s2.73-3.64,3.93-3.9a20.63,20.63,0,0,1,3.94-.38v-.43a1.51,1.51,0,0,0-.49-1.2,2.78,2.78,0,0,0-1.87-.51A8.1,8.1,0,0,0,192,23.13L191,20.35a12.6,12.6,0,0,1,5.36-1.26,7.08,7.08,0,0,1,4.47,1.23,4.58,4.58,0,0,1,1.58,3.91v4.82A5.66,5.66,0,0,0,203,32.07Zm-4.73-5.7a18.18,18.18,0,0,0-1.93.16c-.7.13-1.8.46-1.8,1.55a1.47,1.47,0,0,0,1.61,1.53,2.37,2.37,0,0,0,2.12-1.31Z"/>
        </g>
      </g>
    </g>
  </g>
</svg>
